<?xml version="1.0" encoding="iso-8859-1"?>
<!-- Generator: Adobe Illustrator 19.0.0, SVG Export Plug-In . SVG Version: 6.00 Build 0)  -->
<svg version="1.1" id="Capa_1" xmlns="http://www.w3.org/2000/svg" xmlns:xlink="http://www.w3.org/1999/xlink" x="0px" y="0px"
	 viewBox="0 0 512 512" style="enable-background:new 0 0 512 512;" xml:space="preserve">
<path style="fill:#DCE1EB;" d="M500.063,305.4l-42.001-84C456.262,98.1,355.763,0,233.062,0c-14.7,0-29.7,1.5-45,4.501
	C99.261,21.599,28.462,92.999,11.962,182.1c-11.4,62.699,2.401,125.099,39.3,175.499C81.863,399.6,98.062,449,98.062,497
	c0,8.401,6.599,15,15,15h210c8.401,0,15-6.599,15-15v-39.2c0-4.2,3.6-7.8,7.8-7.8h67.2c24.901,0,45-20.099,45-45v-45h8.101
	c13.2,0,25.199-6.599,32.1-17.999C505.162,330.901,505.763,317.1,500.063,305.4z"/>
<path style="fill:#CDD2E1;" d="M498.263,342.001c-6.901,11.4-18.9,17.999-32.1,17.999h-8.101v45c0,24.901-20.099,45-45,45h-67.2
	c-4.2,0-7.8,3.6-7.8,7.8V497c0,8.401-6.599,15-15,15h-90V0c122.701,0,223.2,98.101,225,221.4l42.001,84
	C505.763,317.1,505.162,330.901,498.263,342.001z"/>
<path style="fill:#9196AA;" d="M323.062,150c-37.2,0-64.501,25.199-90,52.8c-25.499-27.601-52.8-52.8-90-52.8c-41.4,0-75,33.6-75,75
	s33.6,75,75,75c37.2,0,64.501-25.201,90-52.8c25.499,27.599,52.8,52.8,90,52.8c41.4,0,75-33.6,75-75S364.462,150,323.062,150z
	 M143.062,270c-24.901,0-45-20.101-45-45c0-24.901,20.099-45,45-45c25.8,0,47.701,20.7,69.901,45
	C190.763,249.3,168.862,270,143.062,270z M323.062,270c-25.8,0-47.701-20.7-69.901-45c22.2-24.3,44.101-45,69.901-45
	c24.901,0,45,20.099,45,45C368.062,249.899,347.962,270,323.062,270z"/>
<path style="fill:#7E8596;" d="M323.062,150c-37.2,0-64.501,25.199-90,52.8v44.4c25.499,27.599,52.8,52.8,90,52.8
	c41.4,0,75-33.6,75-75S364.462,150,323.062,150z M323.062,270c-25.8,0-47.701-20.7-69.901-45c22.2-24.3,44.101-45,69.901-45
	c24.901,0,45,20.099,45,45C368.062,249.899,347.962,270,323.062,270z"/>
<g>
</g>
<g>
</g>
<g>
</g>
<g>
</g>
<g>
</g>
<g>
</g>
<g>
</g>
<g>
</g>
<g>
</g>
<g>
</g>
<g>
</g>
<g>
</g>
<g>
</g>
<g>
</g>
<g>
</g>
</svg>
